<svg width="548" height="480" viewBox="0 0 548 480" xmlns="http://www.w3.org/2000/svg">
  <path d="M309.132 319.767c-7.613 0-14.006-2.846-18.026-8.033-3.873-4.985-5.008-11.525-3.197-18.4l27.716-105.699c3.546-13.524 15.188-27.25 30.586-27.327h173.504c9.316 0 17.389 3.281 22.179 9.005 4.697 5.622 6.206 13.166 4.479 22.42l-26.62 101.532c-3.678 14.028-18.865 25.515-33.85 25.6l-176.625.902h-.146z" fill="#fff" fill-opacity=".33"/>
  <path d="M268.281 479.857H154.19c-7.116 0-13.15-2.761-16.992-7.769-4.021-5.234-5.141-12.202-3.149-19.621l45.827-172.928c3.881-14.488 18.842-26.269 33.346-26.269h114.091c7.108 0 13.143 2.76 16.992 7.775 4.021 5.235 5.14 12.203 3.15 19.622l-45.828 172.928c-3.88 14.481-18.835 26.262-33.346 26.262M412.132 7.77C408.291 2.76 402.257 0 395.142 0H281.05c-14.512 0-29.466 11.782-33.347 26.254l-45.68 170.612c-1.983 7.42-.863 14.386 3.157 19.62 3.843 5.008 9.876 7.77 16.992 7.77h114.084c14.51 0 29.466-11.783 33.346-26.255l45.678-170.61c1.993-7.42.873-14.38-3.149-19.622M63.654 209.596H22.088c-3.017 0-5.59-1.19-7.248-3.36-1.694-2.208-2.192-5.225-1.368-8.29l11.136-41.565c1.578-5.895 7.457-10.514 13.384-10.514h41.574c3.008 0 5.575 1.189 7.231 3.352 1.704 2.208 2.202 5.233 1.385 8.297l-11.144 41.566c-1.578 5.895-7.457 10.514-13.383 10.514M135.628 278.854H89.147c-5.273 0-9.752-2.06-12.614-5.793-2.986-3.889-3.82-9.053-2.348-14.526l12.45-46.48c2.83-10.577 13.772-19.186 24.388-19.186h46.472c5.273 0 9.752 2.052 12.614 5.785 2.987 3.888 3.827 9.053 2.356 14.534l-12.45 46.481c-2.838 10.577-13.781 19.185-24.387 19.185M29.11 301.811H8.51c-2.845 0-5.272-1.127-6.835-3.165-1.61-2.084-2.084-4.939-1.314-7.823l5.52-20.616c1.487-5.529 7.008-9.86 12.568-9.86h20.6c2.847 0 5.28 1.127 6.844 3.172 1.602 2.092 2.084 4.938 1.306 7.823l-5.521 20.608c-1.477 5.53-7 9.861-12.567 9.861" fill="#fff" fill-opacity=".33"/>
</svg>
